PathFileType	4	(X/Y/Z)	C:/Users/beibeiliu/ov580/test_trc/capture2\sequence.5_training_dense_right.trc
DataRate	CameraRate	NumFrames	NumMarkers	Units	OrigDataRate	OrigDataStartFrame	OrigNumFrames
120	120	10	19	mm	120	219	350
Frame#	Time	ThumbCMC			ThumbMCP			ThumbIP			ThumbTip			IndexMCP			IndexPIP			IndexTip			MiddleMCP			MiddlePIP			MiddleTip			RingMCP			RingPIP			RingTip			PinkyMCP			PinkyPIP			PinkyTip			BackHand1			BackHand2			BackHand3	
		X0	Y0	Z0	X1	Y1	Z1	X2	Y2	Z2	X3	Y3	Z3	X4	Y4	Z4	X5	Y5	Z5	X6	Y6	Z6	X7	Y7	Z7	X8	Y8	Z8	X9	Y9	Z9	X10	Y10	Z10	X11	Y11	Z11	X12	Y12	Z12	X13	Y13	Z13	X14	Y14	Z14	X15	Y15	Z15	X16	Y16	Z16	X17	Y17	Z17	X18	Y18	Z18	
218	1.81667	110.526	54.285	-17.1618	102.28	44.3855	-49.6995	101.706	45.749	-79.7952	111.527	47.1508	-100.559	114.973	84.1673	-83.1686	108.633	71.8009	-107.562	110.267	57.364	-132.263	136.76	72.2591	-89.9775	131.397	39.3327	-94.2017	128.475	35.1891	-56.2873	151.807	53.7929	-85.9138	143.364	27.2146	-77.3433	139.283	36.9542	-43.9167	165.972	49.5141	-75.4607	153.968	24.1202	-64.1912	147.569	43.2199	-34.948	168.824	79.7161	-32.2418	168.186	71.1344	-3.58399	140.911	82.2485	-16.6721	
219	1.825	111.442	52.1519	-16.3279	99.4633	42.0605	-48.4487	101.09	44.4723	-78.5645	112.746	44.9733	-99.3475	118.751	83.908	-81.8773	111.879	72.6913	-108.914	110.272	61.3996	-130.142	137.466	71.1013	-90.8755	130.608	41.0826	-94.9337	126.894	33.9348	-58.5648	153.821	52.8363	-85.6671	140.451	28.4889	-75.7971	137.445	37.5718	-42.7081	163.765	47.225	-76.5441	151.181	26.2113	-65.1572	148.917	39.2928	-35.0657	168.766	77.6485	-33.7554	167.158	69.0511	-4.02536	137.254	79.4714	-13.4544	
220	1.83333	107.209	52.6117	-15.544	101.673	42.4453	-49.1855	100.056	41.044	-77.3416	115.634	44.6094	-100.151	112.88	87.0616	-82.3631	107.493	78.7224	-108.683	105.457	69.6826	-131.997	137.74	70.625	-90.3716	126.354	39.5015	-91.8873	129.228	34.3751	-57.1087	152.371	57.8291	-82.4172	141.351	27.6783	-74.944	137.223	37.1581	-42.8037	163.542	48.344	-74.4771	151.131	24.0959	-60.3511	146.38	39.1034	-34.6129	169.067	77.631	-33.6428	165.936	67.0951	-1.29652	136.604	81.3	-17.9742	
221	1.84167	106.965	51.6449	-16.9535	97.8897	38.8103	-47.1903	100.194	39.401	-73.9941	115.761	43.0524	-98.9116	114.69	89.3572	-81.2703	109.952	85.0445	-103.824	103.943	81.0389	-129.505	136.527	71.1023	-86.6765	123.399	39.8304	-90.3869	126.015	34.5333	-55.8458	152.061	56.7872	-81.0396	139.618	27.2271	-72.7607	134.787	36.215	-42.7049	167.509	46.8166	-75.1117	150.188	26.5892	-63.5946	150.295	36.9689	-32.7747	166.486	78.8461	-30.2645	163.759	67.3794	-0.445613	136.163	81.1349	-13.1645	
222	1.85	106.338	50.8952	-17.7861	98.7106	38.659	-44.5021	97.2642	39.5315	-77.3753	111.362	40.0992	-97.0709	111.709	89.8479	-80.0889	108.135	88.7064	-105.3	103.691	88.7607	-126.438	132.371	71.3734	-85.6591	122.206	38.7625	-90.4806	122.558	32.4326	-56.6746	146.716	54.1157	-83.5706	138.087	27.6743	-73.4569	136.035	37.0541	-39.4139	162.213	44.2786	-76.3632	147.53	25.7059	-59.549	144.979	38.2902	-33.6423	166.717	78.3726	-32.2243	163.911	68.4159	-4.4329	131.931	80.6157	-16.0366	
223	1.85833	107.933	48.008	-16.43	96.6268	37.3292	-47.6912	96.9284	35.5291	-70.9256	112.181	39.1538	-99.3885	107.131	88.4894	-76.8473	99.482	90.2164	-100.211	100.354	92.0703	-127.651	127.058	67.1453	-88.3231	122.336	34.9775	-88.9836	122.784	30.4189	-56.2971	144.964	50.485	-84.8688	133.792	25.8791	-71.2828	134.954	35.3576	-37.9348	161.415	48.4399	-73.528	144.982	25.0984	-58.4788	148.004	41.4224	-30.4311	160.591	79.1573	-32.5763	162.214	70.2134	-3.98625	130.887	79.3088	-12.4115	
224	1.86667	103.286	45.0972	-13.7869	97.074	33.8401	-45.4676	95.3362	31.9131	-71.0327	106.013	33.7191	-95.6499	102.362	86.0234	-76.4037	95.0168	87.0893	-99.2582	90.9762	92.063	-125.398	121.769	66.2073	-87.062	120.786	31.8829	-88.9839	120.231	27.6681	-54.1943	143.187	52.7295	-81.4818	133.177	22.2235	-70.4526	131.398	34.0627	-38.4729	155.737	45.0985	-75.4555	142.842	23.854	-59.2878	144.337	37.2142	-31.4979	158.26	78.0254	-36.7273	160.604	67.0956	-5.85736	129.583	77.3683	-12.8733	
225	1.875	101.643	40.8792	-13.4286	93.5756	26.0386	-41.2176	91.6619	26.7767	-70.2355	101.982	29.1288	-93.7757	98.3627	82.0103	-74.4884	84.7099	82.5672	-97.2889	85.6561	86.2358	-121.614	117.535	60.6482	-86.5489	112.407	29.5453	-88.0915	118.118	22.856	-54.7104	136.929	45.6642	-83.7847	128.225	21.4642	-71.2278	134.07	27.3285	-37.8725	148.651	42.4475	-75.6028	145.766	18.6286	-58.347	142.984	37.8477	-29.1262	150.413	74.9043	-37.0304	160.306	65.7334	-6.47581	124.978	74.0268	-10.8042	
226	1.88333	104.306	35.4755	-9.22951	91.5184	22.1526	-42.9278	88.8881	20.3668	-67.1599	97.5555	25.1011	-94.4066	90.9098	74.5801	-69.7058	83.3545	75.2606	-96.0597	79.405	78.224	-118.528	116.037	55.4976	-87.5551	110.406	24.6346	-87.2265	119.163	19.9164	-52.986	132.021	42.4849	-83.0147	129.493	17.2855	-72.0826	130.391	23.7125	-39.4629	150.003	42.4475	-74.6909	141.61	17.8403	-60.1592	141.269	30.374	-30.5068	151.062	75.1075	-37.5686	154.744	63.8735	-3.7592	121.433	69.1451	-12.1715	
227	1.89167	103.997	31.4291	-8.71906	90.7506	15.4087	-39.4046	90.3333	17.0325	-67.4932	96.8449	20.0839	-88.3068	88.5104	68.8068	-74.9653	76.7785	65.9105	-98.5588	72.5061	66.1871	-120.453	113.042	51.8772	-87.027	110.076	20.5523	-87.8655	119.301	14.8539	-53.8348	130.065	39.6657	-82.9639	127.328	12.981	-71.6548	132.685	21.5866	-36.7643	146.712	38.208	-75.8115	141.469	14.2142	-58.7743	143.677	29.1544	-31.2837	146.779	71.6172	-36.7035	153.15	63.0205	-3.30501	122.579	66.1439	-10.2152	
